#N canvas 1377 811 761 805 10;
#X obj 143 233 cos;
#X obj 143 337 * -2;
#X obj 359 298 pow 2;
#X obj 143 445 * -1;
#X obj 206 446 * -1;
#X obj 68 565 inlet~;
#X obj 68 677 biquad~;
#X obj 68 742 outlet~;
#X obj 143 67 inlet frequency;
#X obj 143 96 * 6.28319;
#X obj 143 592 pack f f 1 0 0;
#X obj 496 377 +;
#X obj 496 408 + 1;
#X text 42 25 mass spring damper with m = 1;
#X obj 496 459 /;
#X obj 359 62 inlet alpha;
#X obj 359 83 * -1;
#X obj 359 215 exp;
#X obj 571 387 t b f;
#X obj 206 467 t b f;
#X obj 359 194 *;
#X obj 143 208 *;
#X obj 502 76 loadbang;
#X obj 502 98 samplerate~;
#X obj 502 120 pow -1;
#X obj 502 142 s \$0_T;
#X obj 158 187 r \$0_T;
#X obj 143 315 *;
#X obj 158 264 r \$0_R;
#X obj 142 358 s \$0_a1;
#X obj 231 145 pow 2;
#X obj 231 237 s \$0_k;
#X obj 143 420 r \$0_a1;
#X obj 359 320 s \$0_a2;
#X obj 359 237 s \$0_R;
#X obj 359 276 r \$0_R;
#X obj 206 420 r \$0_a2;
#X obj 496 306 r \$0_a1;
#X obj 548 306 r \$0_a2;
#X obj 548 328 t b f;
#X obj 571 366 r \$0_k;
#X obj 496 480 s \$0_b0;
#X obj 265 519 r \$0_b0;
#X obj 265 541 t b f;
#X obj 374 172 r \$0_T;
#X obj 158 286 t b f;
#X obj 291 146 pow 2;
#X obj 291 167 t b f;
#X obj 231 206 +;
#X connect 0 0 27 0;
#X connect 1 0 29 0;
#X connect 2 0 33 0;
#X connect 3 0 10 0;
#X connect 4 0 19 0;
#X connect 5 0 6 0;
#X connect 6 0 7 0;
#X connect 8 0 9 0;
#X connect 9 0 21 0;
#X connect 9 0 30 0;
#X connect 10 0 6 0;
#X connect 11 0 12 0;
#X connect 12 0 14 0;
#X connect 14 0 41 0;
#X connect 15 0 16 0;
#X connect 15 0 46 0;
#X connect 16 0 20 0;
#X connect 17 0 34 0;
#X connect 18 0 14 0;
#X connect 18 1 14 1;
#X connect 19 0 10 0;
#X connect 19 1 10 1;
#X connect 20 0 17 0;
#X connect 21 0 0 0;
#X connect 22 0 23 0;
#X connect 23 0 24 0;
#X connect 24 0 25 0;
#X connect 26 0 21 1;
#X connect 27 0 1 0;
#X connect 28 0 45 0;
#X connect 30 0 48 0;
#X connect 32 0 3 0;
#X connect 35 0 2 0;
#X connect 36 0 4 0;
#X connect 37 0 11 0;
#X connect 38 0 39 0;
#X connect 39 0 11 0;
#X connect 39 1 11 1;
#X connect 40 0 18 0;
#X connect 42 0 43 0;
#X connect 43 0 10 0;
#X connect 43 1 10 2;
#X connect 44 0 20 1;
#X connect 45 0 27 0;
#X connect 45 1 27 1;
#X connect 46 0 47 0;
#X connect 47 0 48 0;
#X connect 47 1 48 1;
#X connect 48 0 31 0;
