#N canvas 1791 766 741 721 10;
#X obj 307 17 inlet;
#X obj 16 84 rpole~ 1;
#X obj 16 285 rpole~ 1;
#X msg 307 150 clear;
#X obj 16 323 *~;
#X obj 16 215 +~;
#X obj 16 122 *~;
#X obj 16 53 /~;
#X obj 182 674 block~ 1;
#X obj 15 449 *~;
#X obj 15 494 *~;
#X text 20 236 Velocity;
#X text 123 14 External Force (Current);
#X text 422 624 External Force (Next);
#X obj 16 380 abs~;
#X obj 15 399 pow~ 1.5;
#X obj 213 414 expr~ $v1 < 0;
#X obj 31 191 * -1;
#X obj 16 14 delread~ \$0_z1 0;
#X obj 307 624 delwrite~ \$0_z1 1;
#X obj 31 103 r \$0_dt;
#X obj 31 304 r \$0_dt;
#X obj 31 167 r \$0_initialVelocity;
#X obj 31 33 r \$0_mass;
#X obj 15 672 outlet~ force;
#X obj 656 17 loadbang;
#X obj 656 39 samplerate~;
#X obj 656 61 pow -1;
#X obj 656 83 s \$0_dt;
#X obj 504 17 inlet;
#X obj 366 39 s \$0_initialVelocity;
#X obj 366 17 inlet;
#X text 61 335 Position;
#X obj 432 221 r \$0_contactModulus;
#X obj 432 323 *;
#X obj 447 250 r \$0_radius;
#X obj 447 272 sqrt;
#X obj 447 294 t b f;
#X obj 432 345 * 4;
#X obj 432 367 / 3;
#X obj 432 389 s \$0_hertzSpringConstant;
#X obj 504 38 list prepend \$0;
#X msg 504 59 \; \$1_mass \$2 \; \$1_contactModulus \$3 \; \$1_radius \$4 \;;
#X obj 30 429 r \$0_hertzSpringConstant;
#X connect 0 0 3 0;
#X connect 1 0 6 0;
#X connect 2 0 4 0;
#X connect 3 0 1 0;
#X connect 3 0 2 0;
#X connect 3 0 19 0;
#X connect 4 0 14 0;
#X connect 4 0 16 0;
#X connect 5 0 2 0;
#X connect 6 0 5 0;
#X connect 7 0 1 0;
#X connect 9 0 10 0;
#X connect 10 0 19 0;
#X connect 10 0 24 0;
#X connect 14 0 15 0;
#X connect 15 0 9 0;
#X connect 16 0 10 1;
#X connect 17 0 5 1;
#X connect 18 0 7 0;
#X connect 20 0 6 1;
#X connect 21 0 4 1;
#X connect 22 0 17 0;
#X connect 23 0 7 1;
#X connect 25 0 26 0;
#X connect 26 0 27 0;
#X connect 27 0 28 0;
#X connect 29 0 41 0;
#X connect 31 0 30 0;
#X connect 33 0 34 0;
#X connect 34 0 38 0;
#X connect 35 0 36 0;
#X connect 36 0 37 0;
#X connect 37 0 34 0;
#X connect 37 1 34 1;
#X connect 38 0 39 0;
#X connect 39 0 40 0;
#X connect 41 0 42 0;
#X connect 43 0 9 1;
