#N canvas 2031 501 1436 695 12;
#X obj 52 338 bng 19 250 50 0 empty empty empty 0 -10 0 12 #fcfcfc #000000 #000000;
#X obj 52 362 f \$0;
#X obj 46 213 hsl 162 19 1 4 0 1 \$0_malletDiameter_cm empty Mallet\ Diameter\ (cm) -2 -10 0 12 #fcfcfc #000000 #000000 13100 1;
#X obj 46 265 hsl 162 19 0 1 0 1 \$0_malletStiffness empty Mallet\ Stiffness -2 -10 0 12 #fcfcfc #000000 #000000 8100 1;
#X obj 46 58 hsl 162 19 0 1 0 1 \$0_barTimbre empty Bar\ Timbre -2 -10 0 12 #fcfcfc #000000 #000000 16100 1;
#X obj 46 108 hsl 162 19 0 1 0 1 \$0_barDamping empty Bar\ Damping -2 -10 0 12 #fcfcfc #000000 #000000 13018 1;
#X obj 1116 383 hsl 162 19 0 10 0 1 \$0_globalDamping empty global\ damping -2 -10 0 12 #fcfcfc #000000 #000000 5400 1;
#X obj 1145 460 hsl 162 19 0.001 5 1 1 \$0_overtoneDamping empty overtone\ damping -2 -10 0 12 #fcfcfc #000000 #000000 6200 1;
#X obj 52 311 loadbang;
#X obj 345 408 bng 19 250 50 0 empty empty empty 0 -10 0 12 #fcfcfc #000000 #000000;
#X obj 345 432 f \$0;
#X msg 343 466 \; \$1_contactModulus 9e+08 \;;
#X obj 618 417 hsl 162 19 0 1 0 1 \$0_forcePos empty force\ position -2 -10 0 12 #fcfcfc #000000 #000000 7200 1;
#X obj 245 258 tgl 19 1 \$0_tubeOn empty tube 0 -10 0 12 #fcfcfc #000000 #000000 1 1;
#X obj 350 523 bng 19 250 50 0 empty empty empty 0 -10 0 12 #fcfcfc #000000 #000000;
#X obj 350 547 f \$0;
#X msg 350 573 \; \$1_barGain 0 \; \$1_tubeGain 0 \;;
#X obj 298 257 hsl 162 19 0 8 0 1 \$0_tremRate empty tremolo\ rate -2 -10 0 12 #fcfcfc #000000 #000000 0 1;
#X obj 874 104 - 1;
#X obj 874 42 notein;
#X obj 874 131 pack f f f f f f f;
#X obj 876 300 dac~;
#X obj 874 80 poly 8 1;
#X obj 874 170 clone -x voice 8 \$0;
#X obj 982 343 ctlin;
#X floatatom 982 367 5 0 0 0 - - - 0;
#X obj 982 390 / 127;
#X msg 982 414 1 \$1;
#X obj 982 438 -;
#X obj 747 121 bng 19 250 50 0 empty empty empty 0 -10 0 12 #fcfcfc #000000 #000000;
#X obj 747 145 random 100;
#X obj 747 169 / 100;
#X floatatom 747 241 5 0 0 0 - - - 0;
#X obj 747 193 * 0.25;
#X obj 747 217 + 0.375;
#X obj 747 264 s \$0_forcePos;
#X obj 982 462 * 9.5;
#X obj 1016 271 sel 0;
#X obj 1016 306 bng 19 250 50 0 empty empty empty 0 -10 0 12 #fcfcfc #000000 #000000;
#X obj 1041 307 bng 19 250 50 0 empty empty empty 0 -10 0 12 #fcfcfc #000000 #000000;
#X floatatom 1113 407 7 0 0 0 - - - 0;
#X msg 1130 330 0.74534;
#X msg 1053 357 7;
#X obj 1217 511 hsl 162 19 1e-08 0.01 1 1 \$0_noteDamping empty note\ damping -2 -10 0 12 #fcfcfc #000000 #000000 5900 1;
#X floatatom 1142 484 5 0 0 0 - - - 0;
#X floatatom 1214 535 5 0 0 0 - - - 0;
#X obj 512 51 bng 19 250 50 0 empty empty marimba 0 -10 0 12 #fcfcfc #000000 #000000;
#X obj 512 75 f \$0;
#X obj 515 199 bng 19 250 50 0 empty empty vibraphone 0 -10 0 12 #fcfcfc #000000 #000000;
#X obj 515 223 f \$0;
#X msg 512 108 \; \$1_globalDamping 7 \; \$1_overtoneDamping 0.17 \; \$1_noteDamping 1.5e-06 \;;
#X msg 515 256 \; \$1_globalDamping 0.75 \; \$1_overtoneDamping 0.026 \; \$1_noteDamping 1.58e-06 \;;
#X obj 46 161 hsl 162 19 0 1 0 1 \$0_barMetallic empty Bar\ Metallic -2 -10 0 12 #fcfcfc #000000 #000000 2800 1;
#N canvas 0 50 450 250 (subpatch) 0;
#X array \$0_scope 500 float 1;
#A 0 0 0 0 0 0 0 0 0 0 0 0 0 0 0 0 0 0 0 0 0 0 0 0 0 0 0 0 0 0 0 0 0 0 0 0 0 0 0 0 0 0 0 0 0 0 0 0 0 0 0 0 0 0 0 0 0 0 0 0 0 0 0 0 0 0 0 0 0 0 0 0 0 0 0 0 0 0 0 0 0 0 0 0 0 0 0 0 0 0 0 0 0 0 0 0 0 0 0 0 0 0 0 0 0 0 0 0 0 0 0 0 0 0 0 0 0 0 0 0 0 0 0 0 0 0 0 0 0 0 0 0 0 0 0 0 0 0 0 0 0 0 0 0 0 0 0 0 0 0 0 0 0 0 0 0 0 0 0 0 0 0 0 0 0 0 0 0 0 0 0 0 0 0 0 0 0 0 0 0 0 0 0 0 0 0 0 0 0 0 0 0 0 0 0 0 0 0 0 0 0 0 0 0 0 0 0 0 0 0 0 0 0 0 0 0 0 0 0 0 0 0 0 0 0 0 0 0 0 0 0 0 0 0 0 0 0 0 0 0 0 0 0 0 0 0 0 0 0 0 0 0 0 0 0 0 0 0 0 0 0 0 0 0 0 0 0 0 0 0 0 0 0 0 0 0 0 0 0 0 0 0 0 0 0 0 0 0 0 0 0 0 0 0 0 0 0 0 0 0 0 0 0 0 0 0 0 0 0 0 0 0 0 0 0 0 0 0 0 0 0 0 0 0 0 0 0 0 0 0 0 0 0 0 0 0 0 0 0 0 0 0 0 0 0 0 0 0 0 0 0 0 0 0 0 0 0 0 0 0 0 0 0 0 0 0 0 0 0 0 0 0 0 0 0 0 0 0 0 0 0 0 0 0 0 0 0 0 0 0 0 0 0 0 0 0 0 0 0 0 0 0 0 0 0 0 0 0 0 0 0 0 0 0 0 0 0 0 0 0 0 0 0 0 0 0 0 0 0 0 0 0 0 0 0 0 0 0 0 0 0 0 0 0 0 0 0 0 0 0 0 0 0 0 0 0 0 0 0 0 0 0 0 0 0 0 0 0 0 0 0 0 0 0 0 0 0 0 0 0 0 0 0 0 0 0 0 0 0 0 0 0 0 0 0 0 0 0 0 0 0;
#A color 0;
#A width 1;
#X coords 0 1 499 -1 200 140 1;
#X restore 239 57 graph;
#X obj 906 510 tgl 19 1 empty empty empty 0 -10 0 12 #fcfcfc #000000 #000000 1 1;
#X obj 906 534 metro 20;
#X obj 906 558 tabwrite~ \$0_scope;
#X obj 875 231 *~ 0.1;
#X msg 52 388 \; \$1_minContactModulus 1.32e+07 \; \$1_maxContactModulus 2.51e+09 \; \$1_malletSpringConstant 559000 \; \$1_malletDampingRatio 0.1 \; \$1_malletDensity 8000 \; \$1_malletGain 0.00015 \; \$1_barGain 1e-08 \; \$1_tubeGain 4e-05 \; \$1_minBarDamping 0.5 \; \$1_maxBarDamping 10 \;;
#N canvas 681 510 450 271 old-params 0;
#X msg 36 38 \; \$1_minContactModulus 1.32e+07 \; \$1_maxContactModulus 2.51e+09 \; \$1_malletSpringConstant 559000 \; \$1_malletDampingRatio 0.072 \; \$1_malletDensity 8000 \; \$1_malletGain 2e+09 \; \$1_barGain 50000 \; \$1_tubeGain 3000 \; \$1_minBarDamping 0.5 \; \$1_maxBarDamping 10 \;;
#X restore 53 599 pd old-params;
#N canvas 1397 743 1090 712 set-parameters 0;
#X obj 40 650 s \$0_impactForceParams;
#X obj 73 502 r \$0_contactModulus;
#X obj 40 615 pack f f f;
#X obj 544 652 s \$0_barParams;
#X obj 817 487 r \$0_tubeOn;
#X obj 817 651 s \$0_tubeParams;
#X obj 275 649 s \$0_malletParams;
#X obj 117 524 r \$0_malletRadius;
#X obj 40 479 r \$0_malletMass;
#X obj 308 460 r \$0_malletSpringConstant;
#X obj 348 486 r \$0_malletDampingRatio;
#X obj 275 438 r \$0_malletMass;
#X obj 117 576 t b f;
#X obj 73 553 t b f;
#X obj 348 540 t b f;
#X obj 308 514 t b f;
#X obj 275 614 pack f f f f;
#X obj 388 567 t b f;
#X obj 388 511 r \$0_malletRadius;
#X obj 858 555 t b f;
#X obj 613 491 r \$0_overtoneDamping;
#X obj 573 469 r \$0_globalDamping;
#X obj 653 513 r \$0_noteDamping;
#X obj 653 577 t b f;
#X obj 613 547 t b f;
#X obj 573 517 t b f;
#X obj 544 447 r \$0_barTimbre;
#X obj 544 625 pack f f f f;
#X obj 40 44 r \$0_malletDiameter_cm;
#X obj 40 68 * 0.005;
#X obj 40 182 * 3.14159;
#X obj 40 158 pow 3;
#X obj 40 206 * 4;
#X obj 40 230 / 3;
#X obj 40 254 s \$0_malletVolume;
#X obj 40 92 s \$0_malletRadius;
#X obj 40 134 r \$0_malletRadius;
#X obj 40 293 r \$0_malletVolume;
#X obj 40 370 *;
#X obj 58 316 r \$0_malletDensity;
#X obj 40 394 s \$0_malletMass;
#X obj 58 340 t b f;
#X obj 275 240 *;
#X obj 275 46 r \$0_malletStiffness;
#X obj 304 75 r \$0_maxContactModulus;
#X obj 304 169 -;
#X obj 322 102 r \$0_minContactModulus;
#X obj 322 126 t b f;
#X obj 304 193 t b f;
#X obj 275 314 +;
#X obj 332 232 r \$0_minContactModulus;
#X obj 332 256 t b f;
#X obj 275 348 s \$0_contactModulus;
#X obj 793 195 r \$0_barMetallic;
#X obj 793 269 * 0.2;
#X obj 923 195 r \$0_barMetallic;
#X msg 793 219 1 \$1;
#X obj 793 243 -;
#X obj 923 219 * 0.006;
#X obj 793 313 +;
#X obj 923 243 t b f;
#X obj 793 347 s \$0_overtoneDamping;
#X obj 546 239 *;
#X obj 575 168 -;
#X obj 593 125 t b f;
#X obj 575 192 t b f;
#X obj 546 313 +;
#X obj 603 255 t b f;
#X obj 546 45 r \$0_barDamping;
#X obj 575 74 r \$0_maxBarDamping;
#X obj 593 101 r \$0_minBarDamping;
#X obj 603 231 r \$0_minBarDamping;
#X obj 546 347 s \$0_globalDamping;
#X obj 858 509 r \$0_tremOn;
#X obj 817 622 pack f f f;
#X obj 898 581 t b f;
#X obj 898 531 r \$0_tremRate;
#X connect 1 0 13 0;
#X connect 2 0 0 0;
#X connect 4 0 74 0;
#X connect 7 0 12 0;
#X connect 8 0 2 0;
#X connect 9 0 15 0;
#X connect 10 0 14 0;
#X connect 11 0 16 0;
#X connect 12 0 2 0;
#X connect 12 1 2 2;
#X connect 13 0 2 0;
#X connect 13 1 2 1;
#X connect 14 0 16 0;
#X connect 14 1 16 2;
#X connect 15 0 16 0;
#X connect 15 1 16 1;
#X connect 16 0 6 0;
#X connect 17 0 16 0;
#X connect 17 1 16 3;
#X connect 18 0 17 0;
#X connect 19 0 74 0;
#X connect 19 1 74 1;
#X connect 20 0 24 0;
#X connect 21 0 25 0;
#X connect 22 0 23 0;
#X connect 23 0 27 0;
#X connect 23 1 27 3;
#X connect 24 0 27 0;
#X connect 24 1 27 2;
#X connect 25 0 27 0;
#X connect 25 1 27 1;
#X connect 26 0 27 0;
#X connect 27 0 3 0;
#X connect 28 0 29 0;
#X connect 29 0 35 0;
#X connect 30 0 32 0;
#X connect 31 0 30 0;
#X connect 32 0 33 0;
#X connect 33 0 34 0;
#X connect 36 0 31 0;
#X connect 37 0 38 0;
#X connect 38 0 40 0;
#X connect 39 0 41 0;
#X connect 41 0 38 0;
#X connect 41 1 38 1;
#X connect 42 0 49 0;
#X connect 43 0 42 0;
#X connect 44 0 45 0;
#X connect 45 0 48 0;
#X connect 46 0 47 0;
#X connect 47 0 45 0;
#X connect 47 1 45 1;
#X connect 48 0 42 0;
#X connect 48 1 42 1;
#X connect 49 0 52 0;
#X connect 50 0 51 0;
#X connect 51 0 49 0;
#X connect 51 1 49 1;
#X connect 53 0 56 0;
#X connect 54 0 59 0;
#X connect 55 0 58 0;
#X connect 56 0 57 0;
#X connect 57 0 54 0;
#X connect 58 0 60 0;
#X connect 59 0 61 0;
#X connect 60 0 59 0;
#X connect 60 1 59 1;
#X connect 62 0 66 0;
#X connect 63 0 65 0;
#X connect 64 0 63 0;
#X connect 64 1 63 1;
#X connect 65 0 62 0;
#X connect 65 1 62 1;
#X connect 66 0 72 0;
#X connect 67 0 66 0;
#X connect 67 1 66 1;
#X connect 68 0 62 0;
#X connect 69 0 63 0;
#X connect 70 0 64 0;
#X connect 71 0 67 0;
#X connect 73 0 19 0;
#X connect 74 0 5 0;
#X connect 75 0 74 0;
#X connect 75 1 74 2;
#X connect 76 0 75 0;
#X restore 54 633 pd set-parameters;
#X obj 245 308 tgl 19 1 \$0_tremOn empty tremolo 0 -10 0 12 #fcfcfc #000000 #000000 1 1;
#X connect 0 0 1 0;
#X connect 1 0 58 0;
#X connect 6 0 40 0;
#X connect 7 0 44 0;
#X connect 8 0 0 0;
#X connect 9 0 10 0;
#X connect 10 0 11 0;
#X connect 14 0 15 0;
#X connect 15 0 16 0;
#X connect 18 0 20 0;
#X connect 19 0 22 0;
#X connect 19 0 29 0;
#X connect 19 1 22 1;
#X connect 19 1 37 0;
#X connect 20 0 23 0;
#X connect 22 0 18 0;
#X connect 22 1 20 1;
#X connect 22 2 20 2;
#X connect 23 0 57 0;
#X connect 24 0 25 0;
#X connect 25 0 26 0;
#X connect 26 0 27 0;
#X connect 27 0 28 0;
#X connect 28 0 36 0;
#X connect 29 0 30 0;
#X connect 30 0 31 0;
#X connect 31 0 33 0;
#X connect 32 0 35 0;
#X connect 33 0 34 0;
#X connect 34 0 32 0;
#X connect 38 0 42 0;
#X connect 39 0 41 0;
#X connect 41 0 6 0;
#X connect 42 0 6 0;
#X connect 43 0 45 0;
#X connect 46 0 47 0;
#X connect 47 0 50 0;
#X connect 48 0 49 0;
#X connect 49 0 51 0;
#X connect 54 0 55 0;
#X connect 55 0 56 0;
#X connect 57 0 21 0;
#X connect 57 0 21 1;
#X connect 57 0 56 0;
