#N canvas 923 576 497 696 12;
#X obj 48 108 inlet~;
#X obj 48 282 mass-spring-damper;
#X obj 48 336 rzero~ 1;
#X obj 48 360 rzero~ 1;
#X obj 48 384 rzero~ 1;
#X obj 48 608 outlet~;
#X obj 218 33 inlet;
#X obj 218 161 s \$0_mass;
#X obj 249 137 s \$0_springConstant;
#X obj 89 202 r \$0_mass;
#X obj 130 225 r \$0_springConstant;
#X obj 281 114 s \$0_dampingRatio;
#X obj 171 248 r \$0_dampingRatio;
#X obj 218 57 unpack f f f f;
#X obj 313 91 s \$0_radius;
#X obj 66 510 r \$0_radius;
#X obj 66 534 pow 2;
#X obj 48 558 *~;
#X obj 273 377 loadbang;
#X obj 273 401 samplerate~;
#X obj 273 425 pow -1;
#X obj 273 449 s \$0_T;
#X obj 66 420 r \$0_T;
#X obj 66 444 pow 3;
#X obj 48 468 /~;
#X connect 0 0 1 0;
#X connect 1 0 2 0;
#X connect 2 0 3 0;
#X connect 3 0 4 0;
#X connect 4 0 24 0;
#X connect 6 0 13 0;
#X connect 9 0 1 1;
#X connect 10 0 1 2;
#X connect 12 0 1 3;
#X connect 13 0 7 0;
#X connect 13 1 8 0;
#X connect 13 2 11 0;
#X connect 13 3 14 0;
#X connect 15 0 16 0;
#X connect 16 0 17 1;
#X connect 17 0 5 0;
#X connect 18 0 19 0;
#X connect 19 0 20 0;
#X connect 20 0 21 0;
#X connect 22 0 23 0;
#X connect 23 0 24 1;
#X connect 24 0 17 0;
