#N canvas 248 791 1036 905 12;
#X text 43 76 External Force;
#X obj 322 97 s \$0_mass;
#X obj 322 73 inlet;
#X obj 412 73 inlet;
#X obj 412 97 s \$0_springConstant;
#X obj 572 73 inlet;
#X obj 572 97 s \$0_dampingRatio;
#X obj 782 321 cos;
#X obj 782 425 * -2;
#X obj 782 516 pow 2;
#X obj 120 143 * -1;
#X obj 183 144 * -1;
#X obj 45 103 inlet~;
#X obj 45 375 biquad~;
#X obj 45 440 outlet~;
#X obj 120 290 pack f f 1 0 0;
#X obj 782 685 +;
#X obj 782 716 + 1;
#X obj 782 767 /;
#X obj 867 695 t b f;
#X obj 183 165 t b f;
#X obj 782 296 *;
#X obj 782 84 loadbang;
#X obj 782 106 samplerate~;
#X obj 782 128 pow -1;
#X obj 782 150 s \$0_T;
#X obj 800 243 r \$0_T;
#X obj 782 403 *;
#X obj 797 352 r \$0_R;
#X obj 782 447 s \$0_a1;
#X obj 120 118 r \$0_a1;
#X obj 782 538 s \$0_a2;
#X obj 782 494 r \$0_R;
#X obj 183 118 r \$0_a2;
#X obj 782 614 r \$0_a1;
#X obj 844 614 r \$0_a2;
#X obj 844 636 t b f;
#X obj 782 788 s \$0_b0;
#X obj 242 217 r \$0_b0;
#X obj 242 239 t b f;
#X obj 797 374 t b f;
#X obj 421 165 r \$0_springConstant;
#X obj 421 249 /;
#X obj 571 189 t b f;
#X obj 571 165 r \$0_mass;
#X obj 421 538 *;
#X obj 600 336 r \$0_dampingRatio;
#X obj 600 360 pow 2;
#X msg 600 384 1 \$1;
#X obj 600 408 -;
#X obj 600 432 sqrt;
#X obj 600 456 t b f;
#X obj 421 298 s \$0_undampedAngularFreq;
#X obj 421 336 r \$0_undampedAngularFreq;
#X obj 421 782 *;
#X obj 488 711 r \$0_T;
#X obj 488 735 t b f;
#X obj 421 836 exp;
#X obj 421 860 s \$0_R;
#X obj 782 215 r \$0_angularFreq;
#X obj 421 562 s \$0_angularFreq;
#X obj 421 602 r \$0_undampedAngularFreq;
#X obj 800 267 t b f;
#X text 115 442 displacement (m);
#X obj 867 674 r \$0_springConstant;
#X obj 421 273 sqrt;
#X obj 421 806 * -1;
#X obj 421 706 *;
#X obj 488 655 t b f;
#X obj 488 631 r \$0_dampingRatio;
#X connect 2 0 1 0;
#X connect 3 0 4 0;
#X connect 5 0 6 0;
#X connect 7 0 27 0;
#X connect 8 0 29 0;
#X connect 9 0 31 0;
#X connect 10 0 15 0;
#X connect 11 0 20 0;
#X connect 12 0 13 0;
#X connect 13 0 14 0;
#X connect 15 0 13 0;
#X connect 16 0 17 0;
#X connect 17 0 18 0;
#X connect 18 0 37 0;
#X connect 19 0 18 0;
#X connect 19 1 18 1;
#X connect 20 0 15 0;
#X connect 20 1 15 1;
#X connect 21 0 7 0;
#X connect 22 0 23 0;
#X connect 23 0 24 0;
#X connect 24 0 25 0;
#X connect 26 0 62 0;
#X connect 27 0 8 0;
#X connect 28 0 40 0;
#X connect 30 0 10 0;
#X connect 32 0 9 0;
#X connect 33 0 11 0;
#X connect 34 0 16 0;
#X connect 35 0 36 0;
#X connect 36 0 16 0;
#X connect 36 1 16 1;
#X connect 38 0 39 0;
#X connect 39 0 15 0;
#X connect 39 1 15 2;
#X connect 40 0 27 0;
#X connect 40 1 27 1;
#X connect 41 0 42 0;
#X connect 42 0 65 0;
#X connect 43 0 42 0;
#X connect 43 1 42 1;
#X connect 44 0 43 0;
#X connect 45 0 60 0;
#X connect 46 0 47 0;
#X connect 47 0 48 0;
#X connect 48 0 49 0;
#X connect 49 0 50 0;
#X connect 50 0 51 0;
#X connect 51 0 45 0;
#X connect 51 1 45 1;
#X connect 53 0 45 0;
#X connect 54 0 66 0;
#X connect 55 0 56 0;
#X connect 56 0 54 0;
#X connect 56 1 54 1;
#X connect 57 0 58 0;
#X connect 59 0 21 0;
#X connect 61 0 67 0;
#X connect 62 0 21 0;
#X connect 62 1 21 1;
#X connect 64 0 19 0;
#X connect 65 0 52 0;
#X connect 66 0 57 0;
#X connect 67 0 54 0;
#X connect 68 0 67 0;
#X connect 68 1 67 1;
#X connect 69 0 68 0;
