#N canvas 580 801 1361 1070 12;
#X obj 52 40 inlet~;
#X obj 52 364 2pole~;
#X obj 91 340 r \$0_alpha_n;
#X obj 71 315 r \$0_f_n;
#X obj 52 254 *~;
#X obj 344 38 loadbang;
#X obj 344 62 f \$1;
#X obj 474 38 loadbang;
#X obj 344 86 s \$0_parentID;
#X obj 474 62 f \$2;
#X obj 474 86 s \$0_modeNum;
#X obj 52 624 *~;
#X obj 344 157 symbol \$1_modeShape\$2;
#X obj 344 133 loadbang;
#X obj 344 181 s \$0_modeShape;
#X msg 70 150 set \$1;
#X obj 70 127 r \$0_modeShape;
#X obj 70 497 r \$0_modeShape;
#X msg 70 520 set \$1;
#X obj 52 688 outlet~;
#X obj 362 624 *~;
#X obj 380 497 r \$0_modeShape;
#X msg 380 520 set \$1;
#X obj 362 688 outlet~;
#X obj 405 549 r \$1_tubePosIndex;
#X obj 95 179 r \$1_forcePosIndex;
#X obj 95 549 r \$1_outPosIndex;
#X obj 70 216 tabread;
#X obj 70 586 tabread;
#X obj 380 586 tabread;
#X obj 344 278 r \$1_f0;
#X obj 344 372 *;
#X obj 344 406 s \$0_f_n;
#X text 672 646 alpha = a0 + a2 f^2;
#X obj 677 553 +;
#X obj 453 754 loadbang;
#X obj 453 778 f \$2;
#X obj 453 987 s \$0_ratio;
#X obj 362 316 r \$0_ratio;
#X obj 695 349 r \$0_ratio;
#X obj 695 373 pow 2;
#X obj 695 477 *;
#X obj 695 511 t b f;
#X obj 713 436 t b f;
#X obj 677 587 s \$0_alpha_n;
#X obj 677 299 r \$1_globalDamping;
#X obj 713 412 r \$1_overtoneDamping;
#X obj 1013 480 r \$1_f0;
#X obj 1013 504 pow 2;
#X obj 1013 608 *;
#X obj 1031 567 t b f;
#X obj 1031 543 r \$1_noteDamping;
#X obj 485 416 print;
#X obj 362 340 t b f;
#X msg 485 383 freq \$1 \$2;
#X obj 484 354 list prepend \$2;
#X obj 308 988 print;
#X obj 308 926 list prepend \$2;
#X msg 308 955 ratio \$1 \$2;
#X obj 913 555 +;
#X obj 931 321 r \$0_ratio;
#X obj 931 375 pow 2;
#X obj 931 479 *;
#X obj 931 513 t b f;
#X obj 949 438 t b f;
#X obj 913 759 s \$0_alpha_n;
#X obj 913 271 r \$1_globalDamping;
#X obj 949 414 r \$1_overtoneDamping;
#X obj 931 345 - 1;
#X obj 633 823 tabread \$1_vibeRatios;
#X obj 647 883 r \$1_timbre;
#X obj 633 937 *;
#X obj 647 907 t b f;
#X obj 453 937 *;
#X obj 497 853 r \$1_timbre;
#X msg 497 877 1 \$1;
#X obj 497 901 -;
#X obj 497 925 t b f;
#X obj 453 961 +;
#X obj 633 961 t b f;
#X obj 1013 632 t b f;
#X obj 913 719 +;
#N canvas 2747 1150 758 771 getRatio 0;
#X obj 44 673 outlet;
#X obj 62 75 r \$0_xyloRatio;
#X obj 44 40 r \$0_glockenRatio;
#X obj 44 394 +;
#X obj 62 169 -;
#X obj 170 75 r \$0_glockenRatio;
#X obj 170 99 t b f;
#X obj 62 353 t b f;
#X obj 62 193 * 2;
#X obj 44 528 *;
#X obj 44 642 +;
#X obj 63 441 r \$1_timbre;
#X obj 63 465 < 0.5;
#X obj 63 489 t b f;
#X obj 324 394 +;
#X obj 342 169 -;
#X obj 450 99 t b f;
#X obj 342 353 t b f;
#X obj 342 193 * 2;
#X obj 324 528 *;
#X obj 343 441 r \$1_timbre;
#X obj 343 489 t b f;
#X obj 324 40 r \$0_xyloRatio;
#X obj 450 75 r \$0_xyloRatio;
#X obj 342 75 r \$0_vibeRatio;
#X obj 343 465 >= 0.5;
#X obj 62 318 *;
#X obj 81 231 r \$1_timbre;
#X obj 81 279 t b f;
#X obj 342 318 *;
#X obj 361 231 r \$1_timbre;
#X obj 361 279 t b f;
#X obj 361 255 - 0.5;
#X obj 324 552 t b f;
#X connect 1 0 4 0;
#X connect 2 0 3 0;
#X connect 3 0 9 0;
#X connect 4 0 8 0;
#X connect 5 0 6 0;
#X connect 6 0 4 0;
#X connect 6 1 4 1;
#X connect 7 0 3 0;
#X connect 7 1 3 1;
#X connect 8 0 26 0;
#X connect 9 0 10 0;
#X connect 10 0 0 0;
#X connect 11 0 12 0;
#X connect 12 0 13 0;
#X connect 13 0 9 0;
#X connect 13 1 9 1;
#X connect 14 0 19 0;
#X connect 15 0 18 0;
#X connect 16 0 15 0;
#X connect 16 1 15 1;
#X connect 17 0 14 0;
#X connect 17 1 14 1;
#X connect 18 0 29 0;
#X connect 19 0 33 0;
#X connect 20 0 25 0;
#X connect 21 0 19 0;
#X connect 21 1 19 1;
#X connect 22 0 14 0;
#X connect 23 0 16 0;
#X connect 24 0 15 0;
#X connect 25 0 21 0;
#X connect 26 0 7 0;
#X connect 27 0 28 0;
#X connect 28 0 26 0;
#X connect 28 1 26 1;
#X connect 29 0 17 0;
#X connect 30 0 32 0;
#X connect 31 0 29 0;
#X connect 31 1 29 1;
#X connect 32 0 31 0;
#X connect 33 0 10 0;
#X connect 33 1 10 1;
#X restore 995 83 pd getRatio;
#X obj 995 107 s \$0_ratio;
#X obj 629 28 loadbang;
#X obj 629 52 f \$2;
#X obj 989 157 tabread \$1_vibeRatios;
#X obj 629 157 tabread \$1_glockenRatios;
#X obj 453 823 tabread \$1_glockenRatios;
#X obj 819 157 tabread \$1_xyloRatios;
#X obj 629 181 s \$0_glockenRatio;
#X obj 819 181 s \$0_xyloRatio;
#X obj 989 181 s \$0_vibeRatio;
#X connect 0 0 4 0;
#X connect 1 0 20 0;
#X connect 1 0 11 0;
#X connect 2 0 1 2;
#X connect 3 0 1 1;
#X connect 4 0 1 0;
#X connect 5 0 6 0;
#X connect 6 0 8 0;
#X connect 7 0 9 0;
#X connect 9 0 10 0;
#X connect 11 0 19 0;
#X connect 12 0 14 0;
#X connect 13 0 12 0;
#X connect 15 0 27 0;
#X connect 16 0 15 0;
#X connect 17 0 18 0;
#X connect 18 0 28 0;
#X connect 20 0 23 0;
#X connect 21 0 22 0;
#X connect 22 0 29 0;
#X connect 24 0 29 0;
#X connect 25 0 27 0;
#X connect 26 0 28 0;
#X connect 27 0 4 1;
#X connect 28 0 11 1;
#X connect 29 0 20 1;
#X connect 30 0 31 0;
#X connect 31 0 32 0;
#X connect 31 0 55 0;
#X connect 35 0 36 0;
#X connect 36 0 69 0;
#X connect 36 0 88 0;
#X connect 38 0 53 0;
#X connect 39 0 40 0;
#X connect 40 0 41 0;
#X connect 41 0 42 0;
#X connect 42 0 34 0;
#X connect 42 1 34 1;
#X connect 43 0 41 0;
#X connect 43 1 41 1;
#X connect 45 0 34 0;
#X connect 46 0 43 0;
#X connect 47 0 48 0;
#X connect 48 0 49 0;
#X connect 49 0 80 0;
#X connect 50 0 49 0;
#X connect 50 1 49 1;
#X connect 51 0 50 0;
#X connect 53 0 31 0;
#X connect 53 1 31 1;
#X connect 55 0 54 0;
#X connect 57 0 58 0;
#X connect 58 0 56 0;
#X connect 59 0 81 0;
#X connect 60 0 68 0;
#X connect 61 0 62 0;
#X connect 62 0 63 0;
#X connect 63 0 59 0;
#X connect 63 1 59 1;
#X connect 64 0 62 0;
#X connect 64 1 62 1;
#X connect 66 0 59 0;
#X connect 67 0 64 0;
#X connect 68 0 61 0;
#X connect 69 0 71 0;
#X connect 70 0 72 0;
#X connect 71 0 79 0;
#X connect 72 0 71 0;
#X connect 72 1 71 1;
#X connect 73 0 78 0;
#X connect 74 0 75 0;
#X connect 75 0 76 0;
#X connect 76 0 77 0;
#X connect 77 0 73 0;
#X connect 77 1 73 1;
#X connect 79 0 78 0;
#X connect 79 1 78 1;
#X connect 80 0 81 0;
#X connect 80 1 81 1;
#X connect 81 0 65 0;
#X connect 82 0 83 0;
#X connect 84 0 85 0;
#X connect 85 0 86 0;
#X connect 85 0 87 0;
#X connect 85 0 89 0;
#X connect 86 0 92 0;
#X connect 87 0 90 0;
#X connect 88 0 57 0;
#X connect 88 0 73 0;
#X connect 89 0 91 0;
