#N canvas 2452 722 672 877 12;
#X obj 528 242 block~ 1;
#X obj 33 119 inlet~;
#X obj 33 575 +~;
#X obj 322 785 outlet~;
#X obj 322 238 * 500;
#X obj 322 214 pow -1;
#X obj 322 378 *~ -0.9;
#X msg 90 601 clear;
#X obj 322 590 *~;
#X obj 90 580 r \$0_clearAll;
#X obj 32 659 delwrite~ \$0_del 500;
#X obj 322 263 delread4~ \$0_del;
#X obj 322 50 inlet freq;
#X obj 432 50 inlet tubeParams;
#X obj 432 156 s \$0_tubeOn;
#X obj 513 110 s \$0_tremRate;
#X obj 340 566 r \$0_tubeOn;
#X obj 322 644 rzero~ 1;
#X obj 50 220 r \$0_tremRate;
#X text 383 379 -0.99;
#X obj 32 488 *~;
#X obj 50 242 osc~;
#X obj 50 294 *~ 0.9;
#X obj 50 266 abs~;
#X obj 50 316 +~ 0.1;
#X obj 514 461 loadbang;
#X obj 514 485 samplerate~;
#X obj 514 509 pow -1;
#X obj 514 533 s \$0_T;
#X obj 341 687 r \$0_T;
#X obj 341 711 pow 2;
#X obj 323 737 /~;
#X obj 173 220 r \$0_tremOn;
#X obj 432 84 unpack f f f;
#X obj 472 133 s \$0_tremOn;
#X obj 173 268 vline~;
#X obj 50 360 *~;
#X obj 50 434 +~;
#X obj 173 346 +~ 1;
#X obj 173 322 *~ -1;
#X msg 173 244 \$1 10;
#X connect 1 0 20 0;
#X connect 2 0 10 0;
#X connect 4 0 11 0;
#X connect 5 0 4 0;
#X connect 6 0 2 1;
#X connect 6 0 8 0;
#X connect 7 0 10 0;
#X connect 8 0 17 0;
#X connect 9 0 7 0;
#X connect 11 0 6 0;
#X connect 12 0 5 0;
#X connect 13 0 33 0;
#X connect 16 0 8 1;
#X connect 17 0 31 0;
#X connect 18 0 21 0;
#X connect 20 0 2 0;
#X connect 21 0 23 0;
#X connect 22 0 24 0;
#X connect 23 0 22 0;
#X connect 24 0 36 0;
#X connect 25 0 26 0;
#X connect 26 0 27 0;
#X connect 27 0 28 0;
#X connect 29 0 30 0;
#X connect 30 0 31 1;
#X connect 31 0 3 0;
#X connect 32 0 40 0;
#X connect 33 0 14 0;
#X connect 33 1 34 0;
#X connect 33 2 15 0;
#X connect 35 0 39 0;
#X connect 35 0 36 1;
#X connect 36 0 37 0;
#X connect 37 0 20 1;
#X connect 38 0 37 1;
#X connect 39 0 38 0;
#X connect 40 0 35 0;
