#N canvas 459 642 599 671 12;
#X obj 209 214 modal-bar;
#X obj 28 131 impact-force;
#X obj 29 498 outlet~;
#X obj 399 274 tube;
#X obj 209 338 *~;
#X obj 399 338 *~;
#X obj 28 51 r \$0_play;
#X obj 68 74 r \$0_velocity;
#X obj 29 442 +~;
#N canvas 2680 717 663 577 Midi 0;
#X obj 255 123 stripnote, f 10;
#X obj 255 146 mtof;
#X obj 255 168 t b f;
#X obj 304 221 f;
#X obj 322 162 / 127;
#X obj 115 320 b;
#X obj 322 185 * 5;
#X obj 255 70 inlet;
#X obj 255 93 unpack f f;
#X obj 255 318 s \$0_play;
#X obj 287 294 s \$0_freq;
#X obj 304 244 s \$0_velocity;
#X obj 115 343 s \$0_clearAll;
#X obj 78 413 s \$0_forcePos;
#X obj 78 389 f 0.51;
#X connect 0 0 1 0;
#X connect 0 0 5 0;
#X connect 0 1 4 0;
#X connect 1 0 2 0;
#X connect 2 0 3 0;
#X connect 2 0 9 0;
#X connect 2 1 10 0;
#X connect 3 0 11 0;
#X connect 4 0 6 0;
#X connect 5 0 12 0;
#X connect 5 0 14 0;
#X connect 6 0 3 1;
#X connect 7 0 8 0;
#X connect 8 0 0 0;
#X connect 8 1 0 1;
#X connect 14 0 13 0;
#X restore 377 68 pd Midi;
#X obj 377 42 inlet;
#X obj 29 338 *~;
#X obj 28 244 mallet;
#X obj 47 313 r \$1_malletGain;
#X obj 227 313 r \$1_barGain;
#X obj 417 313 r \$1_tubeGain;
#X obj 67 219 r \$1_malletParams;
#X obj 269 192 r \$1_barParams;
#X obj 424 249 r \$1_tubeParams;
#X obj 229 138 r \$0_freq;
#X obj 411 217 r \$0_freq;
#X obj 109 107 r \$1_impactForceParams;
#X obj 249 161 r \$1_forcePos;
#N canvas 152 152 528 511 test 0;
#X obj 46 36 inlet voiceParams;
#X obj 86 100 list split 3;
#X obj 86 358 s \$0_malletParams;
#X obj 126 130 list split 3;
#X obj 126 336 s \$0_barParams;
#X obj 166 160 list split 3;
#X obj 166 314 s \$0_tubeParams;
#X obj 206 190 unpack f f f;
#X obj 206 264 s \$0_malletGain;
#X obj 246 242 s \$0_barGain;
#X obj 287 220 s \$0_tubeGain;
#X obj 46 380 s \$0_impactForceParams;
#X obj 46 70 list split 3;
#X connect 0 0 12 0;
#X connect 1 0 2 0;
#X connect 1 1 3 0;
#X connect 3 0 4 0;
#X connect 3 1 5 0;
#X connect 5 0 6 0;
#X connect 5 1 7 0;
#X connect 7 0 8 0;
#X connect 7 1 9 0;
#X connect 7 2 10 0;
#X connect 12 0 11 0;
#X connect 12 1 1 0;
#X restore 312 521 pd test;
#X obj 462 131 loadbang;
#X obj 462 155 \$1;
#X obj 462 179 print;
#X connect 0 0 4 0;
#X connect 0 1 3 0;
#X connect 1 0 0 0;
#X connect 1 0 12 0;
#X connect 3 0 5 0;
#X connect 4 0 8 1;
#X connect 5 0 8 1;
#X connect 6 0 1 0;
#X connect 7 0 1 1;
#X connect 8 0 2 0;
#X connect 10 0 9 0;
#X connect 11 0 8 0;
#X connect 12 0 11 0;
#X connect 13 0 11 1;
#X connect 14 0 4 1;
#X connect 15 0 5 1;
#X connect 16 0 12 1;
#X connect 17 0 0 3;
#X connect 18 0 3 2;
#X connect 19 0 0 1;
#X connect 20 0 3 1;
#X connect 21 0 1 2;
#X connect 22 0 0 2;
#X connect 24 0 25 0;
#X connect 25 0 26 0;
