#N canvas 192 192 493 397 10;
#X obj 46 27 inlet;
#X obj 140 26 inlet;
#X obj 46 48 unpack f f f;
#X obj 140 47 unpack f f f;
#X obj 46 149 -;
#X obj 80 171 -;
#X obj 115 202 -;
#X obj 140 81 t b f;
#X obj 174 111 t b f;
#X obj 209 141 t b f;
#X obj 46 300 pack f f f;
#X obj 80 232 t b f;
#X obj 115 263 t b f;
#X obj 46 321 outlet;
#X connect 0 0 2 0;
#X connect 1 0 3 0;
#X connect 2 0 4 0;
#X connect 2 1 5 0;
#X connect 2 2 6 0;
#X connect 3 0 7 0;
#X connect 3 1 8 0;
#X connect 3 2 9 0;
#X connect 4 0 10 0;
#X connect 5 0 11 0;
#X connect 6 0 12 0;
#X connect 7 0 4 0;
#X connect 7 1 4 1;
#X connect 8 0 5 0;
#X connect 8 1 5 1;
#X connect 9 0 6 0;
#X connect 9 1 6 1;
#X connect 10 0 13 0;
#X connect 11 0 10 0;
#X connect 11 1 10 1;
#X connect 12 0 10 0;
#X connect 12 1 10 2;
