#N canvas 192 192 467 388 10;
#X obj 38 36 inlet;
#X obj 38 57 unpack f f f;
#X obj 38 242 pack f f f;
#X text 119 55 x \, y \, z;
#X obj 172 69 cos;
#X obj 233 71 sin;
#X obj 71 163 *;
#X obj 122 120 * -1;
#X obj 108 163 *;
#X obj 71 217 +;
#X obj 188 162 *;
#X obj 221 164 *;
#X obj 188 213 +;
#X obj 71 137 t b f;
#X obj 122 141 t b f;
#X obj 108 184 t b f;
#X text 262 38 rotate about the x axis;
#X obj 233 92 t b f;
#X obj 172 90 t b f;
#X obj 221 185 t b f;
#X obj 172 37 inlet;
#X obj 38 263 outlet;
#X connect 0 0 1 0;
#X connect 1 0 2 0;
#X connect 1 1 6 0;
#X connect 1 1 10 0;
#X connect 1 2 8 0;
#X connect 1 2 11 0;
#X connect 2 0 21 0;
#X connect 4 0 13 0;
#X connect 4 0 18 0;
#X connect 5 0 7 0;
#X connect 5 0 17 0;
#X connect 6 0 9 0;
#X connect 7 0 14 0;
#X connect 8 0 15 0;
#X connect 9 0 2 1;
#X connect 10 0 12 0;
#X connect 11 0 19 0;
#X connect 12 0 2 2;
#X connect 13 0 6 0;
#X connect 13 1 6 1;
#X connect 14 0 8 0;
#X connect 14 1 8 1;
#X connect 15 0 9 0;
#X connect 15 1 9 1;
#X connect 17 0 10 0;
#X connect 17 1 10 1;
#X connect 18 0 11 0;
#X connect 18 1 11 1;
#X connect 19 0 12 0;
#X connect 19 1 12 1;
#X connect 20 0 4 0;
#X connect 20 0 5 0;
