#N canvas 192 192 493 397 10;
#X obj 46 27 inlet;
#X obj 140 26 inlet;
#X obj 46 48 unpack f f f;
#X obj 140 47 unpack f f f;
#X obj 140 81 t b f;
#X obj 174 111 t b f;
#X obj 209 141 t b f;
#X obj 46 300 pack f f f;
#X obj 80 232 t b f;
#X obj 115 263 t b f;
#X obj 46 321 outlet;
#X obj 46 149 +;
#X obj 80 171 +;
#X obj 115 202 +;
#X connect 0 0 2 0;
#X connect 1 0 3 0;
#X connect 2 0 11 0;
#X connect 2 1 12 0;
#X connect 2 2 13 0;
#X connect 3 0 4 0;
#X connect 3 1 5 0;
#X connect 3 2 6 0;
#X connect 4 0 11 0;
#X connect 4 1 11 1;
#X connect 5 0 12 0;
#X connect 5 1 12 1;
#X connect 6 0 13 0;
#X connect 6 1 13 1;
#X connect 7 0 10 0;
#X connect 8 0 7 0;
#X connect 8 1 7 1;
#X connect 9 0 7 0;
#X connect 9 1 7 2;
#X connect 11 0 7 0;
#X connect 12 0 8 0;
#X connect 13 0 9 0;
