#N canvas 968 228 587 574 10;
#X obj 38 36 inlet;
#X obj 38 147 unpack f f f;
#X obj 38 305 pack f f f;
#X text 119 145 x \, y \, z;
#X obj 202 36 inlet;
#X obj 38 396 outlet;
#X text 37 10 rotate about the z axis;
#X text 254 38 theta (radians);
#X obj 202 57 t b f;
#X obj 229 133 cos;
#X obj 272 133 sin;
#X obj 38 117 list;
#X obj 65 228 *;
#X obj 65 249 -;
#X obj 99 227 *;
#X obj 180 228 *;
#X obj 214 227 *;
#X obj 180 249 +;
#X obj 38 168 t b f;
#X obj 38 57 t b l;
#X connect 0 0 19 0;
#X connect 1 0 18 0;
#X connect 1 1 14 0;
#X connect 1 1 16 0;
#X connect 1 2 2 2;
#X connect 2 0 5 0;
#X connect 4 0 8 0;
#X connect 8 0 11 0;
#X connect 8 1 9 0;
#X connect 8 1 10 0;
#X connect 9 0 12 1;
#X connect 9 0 16 1;
#X connect 10 0 14 1;
#X connect 10 0 15 1;
#X connect 11 0 1 0;
#X connect 12 0 13 0;
#X connect 13 0 2 0;
#X connect 14 0 13 1;
#X connect 15 0 17 0;
#X connect 16 0 17 1;
#X connect 17 0 2 1;
#X connect 18 0 2 0;
#X connect 18 1 15 0;
#X connect 18 1 12 0;
#X connect 19 0 11 0;
#X connect 19 1 11 1;
