#N canvas 192 192 452 415 10;
#X obj 29 359 outlet;
#X text 211 49 rotate about the y axis;
#X obj 29 50 unpack f f f;
#X obj 29 191 *;
#X obj 159 76 cos;
#X obj 201 74 sin;
#X obj 159 117 t b f;
#X obj 201 115 t b f;
#X obj 29 242 +;
#X obj 98 192 *;
#X obj 98 213 t b f;
#X obj 29 333 pack f f f;
#X obj 63 264 t b f;
#X obj 252 119 * -1;
#X obj 163 192 *;
#X obj 231 197 *;
#X obj 252 140 t b f;
#X obj 163 263 +;
#X obj 231 218 t b f;
#X obj 163 284 t b f;
#X obj 29 23 inlet;
#X obj 159 49 inlet;
#X connect 2 0 3 0;
#X connect 2 0 15 0;
#X connect 2 1 12 0;
#X connect 2 2 9 0;
#X connect 2 2 14 0;
#X connect 3 0 8 0;
#X connect 4 0 6 0;
#X connect 5 0 7 0;
#X connect 5 0 13 0;
#X connect 6 0 3 0;
#X connect 6 0 14 0;
#X connect 6 1 3 1;
#X connect 6 1 14 1;
#X connect 7 0 9 0;
#X connect 7 1 9 1;
#X connect 8 0 11 0;
#X connect 9 0 10 0;
#X connect 10 0 8 0;
#X connect 10 1 8 1;
#X connect 11 0 0 0;
#X connect 12 0 11 0;
#X connect 12 1 11 1;
#X connect 13 0 16 0;
#X connect 14 0 17 0;
#X connect 15 0 18 0;
#X connect 16 0 15 0;
#X connect 16 1 15 1;
#X connect 17 0 19 0;
#X connect 18 0 17 0;
#X connect 18 1 17 1;
#X connect 19 0 11 0;
#X connect 19 1 11 2;
#X connect 20 0 2 0;
#X connect 21 0 4 0;
#X connect 21 0 5 0;
