#N canvas 680 266 500 456 10;
#X obj 46 27 inlet;
#X obj 140 26 inlet;
#X obj 46 48 unpack f f f;
#X obj 46 310 pack f f f;
#X obj 80 242 t b f;
#X obj 115 273 t b f;
#X obj 46 331 outlet;
#X obj 46 189 *;
#X obj 80 191 *;
#X obj 115 192 *;
#X obj 140 127 t b f;
#X text 217 36 Multiply by a scalar;
#X obj 140 97 f \$1;
#X obj 161 60 loadbang;
#X connect 0 0 2 0;
#X connect 1 0 12 0;
#X connect 2 0 7 0;
#X connect 2 1 8 0;
#X connect 2 2 9 0;
#X connect 3 0 6 0;
#X connect 4 0 3 0;
#X connect 4 1 3 1;
#X connect 5 0 3 0;
#X connect 5 1 3 2;
#X connect 7 0 3 0;
#X connect 8 0 4 0;
#X connect 9 0 5 0;
#X connect 10 0 7 0;
#X connect 10 0 8 0;
#X connect 10 0 9 0;
#X connect 10 1 7 1;
#X connect 10 1 8 1;
#X connect 10 1 9 1;
#X connect 12 0 10 0;
#X connect 13 0 12 0;
