#N canvas 192 192 467 388 10;
#X obj 42 36 inlet;
#X obj 42 57 unpack f f f;
#X obj 42 78 pow 2;
#X obj 82 78 pow 2;
#X obj 122 78 pow 2;
#X obj 42 129 +;
#X obj 82 99 t b f;
#X obj 122 129 t b f;
#X obj 42 180 +;
#X obj 42 231 outlet;
#X obj 42 201 sqrt;
#X connect 0 0 1 0;
#X connect 1 0 2 0;
#X connect 1 1 3 0;
#X connect 1 2 4 0;
#X connect 2 0 5 0;
#X connect 3 0 6 0;
#X connect 4 0 7 0;
#X connect 5 0 8 0;
#X connect 6 0 5 0;
#X connect 6 1 5 1;
#X connect 7 0 8 0;
#X connect 7 1 8 1;
#X connect 8 0 10 0;
#X connect 10 0 9 0;
