#N canvas 192 192 467 434 10;
#X obj 39 21 inlet;
#X obj 39 42 unpack f f f;
#X obj 39 153 *;
#X obj 130 22 inlet;
#X obj 130 43 unpack f f f;
#X obj 130 64 t b f;
#X obj 164 84 t b f;
#X obj 199 107 t b f;
#X obj 73 175 *;
#X obj 108 198 *;
#X obj 39 284 +;
#X obj 73 226 t b f;
#X obj 39 345 +;
#X obj 108 259 t b f;
#X obj 39 366 outlet;
#X connect 0 0 1 0;
#X connect 1 0 2 0;
#X connect 1 1 8 0;
#X connect 1 2 9 0;
#X connect 2 0 10 0;
#X connect 3 0 4 0;
#X connect 4 0 5 0;
#X connect 4 1 6 0;
#X connect 4 2 7 0;
#X connect 5 0 2 0;
#X connect 5 1 2 1;
#X connect 6 0 8 0;
#X connect 6 1 8 1;
#X connect 7 0 9 0;
#X connect 7 1 9 1;
#X connect 8 0 11 0;
#X connect 9 0 13 0;
#X connect 10 0 12 0;
#X connect 11 0 10 0;
#X connect 11 1 10 1;
#X connect 12 0 14 0;
#X connect 13 0 12 0;
#X connect 13 1 12 1;
